<svg width="32" height="32" viewBox="0 0 32 32" fill="none" xmlns="http://www.w3.org/2000/svg">
<g clip-path="url(#clip0_3970_3479)">
<path d="M26.6 1.5H5.4C3.24609 1.5 1.5 3.24609 1.5 5.4V26.6C1.5 28.7539 3.24609 30.5 5.4 30.5H26.6C28.7539 30.5 30.5 28.7539 30.5 26.6V5.4C30.5 3.24609 28.7539 1.5 26.6 1.5Z" stroke="#499C54" stroke-width="2"/>
<path d="M25.8565 9.15176C27.2068 11.0936 28.0027 13.452 28.0027 15.9987C28.0027 22.6281 22.6307 28 16.0013 28C9.37195 28 4 22.6281 4 15.9987C4 13.5077 4.7587 11.1918 6.06124 9.27379C5.5572 8.6663 4.81972 7.41682 5.13275 5.50149C5.59434 2.6789 6.67934 4.81441 6.89422 4.98685C7.10114 5.15397 8.30286 5.99226 8.98464 6.10368C9.01382 6.10899 9.043 6.11164 9.07218 6.11429C9.10667 6.11695 9.12789 6.13021 9.14115 6.15143C11.0857 4.79584 13.4467 4 15.996 4C18.5454 4 20.8586 4.77993 22.7925 6.10899C22.8058 6.10899 22.8164 6.10633 22.8297 6.10368C23.5114 5.99226 24.7132 5.15132 24.9201 4.98685C25.135 4.81441 26.2226 2.6789 26.6816 5.50149C26.976 7.3001 26.3473 8.51243 25.8512 9.15442L25.8565 9.15176ZM25.135 15.9987C25.135 10.961 21.039 6.86504 16.0013 6.86504C10.9636 6.86504 6.86769 10.961 6.86769 15.9987C6.86769 21.0364 10.9636 25.1323 16.0013 25.1323C21.039 25.1323 25.135 21.0337 25.135 15.9987Z" fill="black"/>
<path d="M16.0008 6.8623C21.0385 6.8623 25.1345 10.9583 25.1345 15.9959C25.1345 21.0336 21.0385 25.1296 16.0008 25.1296C10.9631 25.1296 6.86719 21.031 6.86719 15.9959C6.86719 10.9609 10.9631 6.8623 16.0008 6.8623ZM18.2663 10.7328C18.4335 10.5656 18.4335 10.2924 18.2663 10.1253C18.0965 9.95815 17.826 9.95815 17.6562 10.1253L9.60224 18.1792C9.43511 18.349 9.43511 18.6196 9.60224 18.7894C9.68448 18.8716 9.79589 18.9167 9.90731 18.9167C10.0187 18.9167 10.1275 18.8742 10.2124 18.7894L18.2663 10.7354V10.7328ZM15.5021 10.5179C15.6692 10.3508 15.6692 10.0775 15.5021 9.90773C15.335 9.74061 15.0617 9.74061 14.8946 9.90773L11.1037 13.6986C10.9366 13.8657 10.9366 14.139 11.1037 14.3061C11.1886 14.391 11.2974 14.4334 11.4088 14.4334C11.5202 14.4334 11.629 14.391 11.7139 14.3061L15.5047 10.5152L15.5021 10.5179Z" fill="#E4E3FD"/>
<path d="M18.266 10.1253C18.4331 10.2924 18.4331 10.5657 18.266 10.7328L10.2121 18.7867C10.1272 18.869 10.0184 18.9141 9.90698 18.9141C9.79556 18.9141 9.68679 18.8716 9.6019 18.7867C9.43478 18.617 9.43478 18.3464 9.6019 18.1766L17.6558 10.1227C17.8256 9.95553 18.0962 9.95553 18.266 10.1227V10.1253Z" fill="black"/>
<path d="M15.5029 9.91029C15.6701 10.0801 15.6701 10.3507 15.5029 10.5204L11.7121 14.3113C11.6298 14.3962 11.5184 14.4386 11.407 14.4386C11.2956 14.4386 11.1868 14.3962 11.1019 14.3113C10.9348 14.1442 10.9348 13.8709 11.1019 13.7038L14.8928 9.91294C15.0599 9.74582 15.3331 9.74582 15.5003 9.91294L15.5029 9.91029Z" fill="black"/>
</g>
<defs>
<clipPath id="clip0_3970_3479">
<rect width="32" height="32" fill="white"/>
</clipPath>
</defs>
</svg>
