<svg width="30" height="30" viewBox="0 0 30 30" fill="none" xmlns="http://www.w3.org/2000/svg">
<rect x="0.75" y="0.75" width="28.5" height="28.5" rx="3.65" stroke="#E76060" stroke-width="0.5"/>
<path d="M25.0516 8.19775C26.414 10.1569 27.2169 12.5364 27.2169 15.1058C27.2169 21.7943 21.797 27.2143 15.1085 27.2143C8.4199 27.2143 3 21.7943 3 15.1058C3 12.5926 3.76548 10.256 5.07964 8.32087C4.5711 7.70796 3.82704 6.44733 4.14286 4.5149C4.60857 1.66711 5.70326 3.82168 5.92006 3.99566C6.12882 4.16428 7.34128 5.01005 8.02913 5.12246C8.05858 5.12781 8.08802 5.13049 8.11746 5.13317C8.15225 5.13584 8.17366 5.14923 8.18705 5.17064C10.1489 3.80295 12.531 3 15.1031 3C17.6752 3 20.0091 3.78689 21.9603 5.12781C21.9737 5.12781 21.9844 5.12514 21.9978 5.12246C22.6856 5.01005 23.8981 4.1616 24.1068 3.99566C24.3236 3.82168 25.421 1.66711 25.884 4.5149C26.1811 6.32956 25.5468 7.55272 25.0463 8.20043L25.0516 8.19775ZM24.3236 15.1058C24.3236 10.0231 20.1911 5.89061 15.1085 5.89061C10.0258 5.89061 5.89329 10.0231 5.89329 15.1058C5.89329 20.1885 10.0258 24.321 15.1085 24.321C20.1911 24.321 24.3236 20.1858 24.3236 15.1058Z" fill="#1D1D1B"/>
<path d="M15.1077 5.88794C20.1904 5.88794 24.3229 10.0204 24.3229 15.1031C24.3229 20.1858 20.1904 24.3183 15.1077 24.3183C10.0251 24.3183 5.89258 20.1831 5.89258 15.1031C5.89258 10.0231 10.0251 5.88794 15.1077 5.88794ZM17.3935 9.79295C17.5621 9.62433 17.5621 9.34865 17.3935 9.18003C17.2222 9.01141 16.9492 9.01141 16.7779 9.18003L8.65204 17.3059C8.48343 17.4772 8.48343 17.7502 8.65204 17.9215C8.73502 18.0044 8.84743 18.0499 8.95984 18.0499C9.07225 18.0499 9.18199 18.0071 9.26764 17.9215L17.3935 9.79562V9.79295ZM14.6046 9.57615C14.7732 9.40753 14.7732 9.13185 14.6046 8.96056C14.436 8.79194 14.1603 8.79194 13.9917 8.96056L10.1669 12.7853C9.99832 12.9539 9.99832 13.2296 10.1669 13.3982C10.2526 13.4838 10.3623 13.5267 10.4747 13.5267C10.5872 13.5267 10.6969 13.4838 10.7825 13.3982L14.6072 9.57347L14.6046 9.57615Z" fill="#E4E3FD"/>
<path d="M17.3943 9.17992C17.5629 9.34854 17.5629 9.62422 17.3943 9.79284L9.26842 17.9187C9.18278 18.0017 9.07304 18.0472 8.96063 18.0472C8.84821 18.0472 8.73848 18.0043 8.65283 17.9187C8.48421 17.7474 8.48421 17.4744 8.65283 17.3031L16.7787 9.17725C16.95 9.00863 17.223 9.00863 17.3943 9.17725V9.17992Z" fill="#1D1D1B"/>
<path d="M14.6058 8.96314C14.7745 9.13444 14.7745 9.40744 14.6058 9.57874L10.7811 13.4034C10.6982 13.4891 10.5857 13.5319 10.4733 13.5319C10.3609 13.5319 10.2512 13.4891 10.1655 13.4034C9.99691 13.2348 9.99691 12.9592 10.1655 12.7905L13.9902 8.96582C14.1589 8.7972 14.4345 8.7972 14.6032 8.96582L14.6058 8.96314Z" fill="#1D1D1B"/>
<circle cx="24.0186" cy="24.0182" r="3.09091" fill="#E76060"/>
</svg>
