<svg width="30" height="30" viewBox="0 0 30 30" fill="none" xmlns="http://www.w3.org/2000/svg">
<rect x="0.5" y="0.5" width="29" height="29" rx="3.9" stroke="#C7C7C7"/>
<path d="M24.8565 8.15176C26.2068 10.0936 27.0027 12.452 27.0027 14.9987C27.0027 21.6281 21.6307 27 15.0013 27C8.37195 27 3 21.6281 3 14.9987C3 12.5077 3.7587 10.1918 5.06124 8.27379C4.5572 7.6663 3.81972 6.41682 4.13275 4.50149C4.59434 1.6789 5.67934 3.81441 5.89422 3.98685C6.10114 4.15397 7.30286 4.99226 7.98464 5.10368C8.01382 5.10899 8.043 5.11164 8.07218 5.11429C8.10667 5.11695 8.12789 5.13021 8.14115 5.15143C10.0857 3.79584 12.4467 3 14.996 3C17.5454 3 19.8586 3.77993 21.7925 5.10899C21.8058 5.10899 21.8164 5.10633 21.8297 5.10368C22.5114 4.99226 23.7132 4.15132 23.9201 3.98685C24.135 3.81441 25.2226 1.6789 25.6816 4.50149C25.976 6.3001 25.3473 7.51243 24.8512 8.15442L24.8565 8.15176ZM24.135 14.9987C24.135 9.96098 20.039 5.86504 15.0013 5.86504C9.96363 5.86504 5.86769 9.96098 5.86769 14.9987C5.86769 20.0364 9.96363 24.1323 15.0013 24.1323C20.039 24.1323 24.135 20.0337 24.135 14.9987Z" fill="#1D1D1B"/>
<path d="M15.0008 5.8623C20.0385 5.8623 24.1345 9.95825 24.1345 14.9959C24.1345 20.0336 20.0385 24.1296 15.0008 24.1296C9.96313 24.1296 5.86719 20.031 5.86719 14.9959C5.86719 9.9609 9.96313 5.8623 15.0008 5.8623ZM17.2663 9.73276C17.4335 9.56563 17.4335 9.29239 17.2663 9.12526C17.0965 8.95814 16.826 8.95814 16.6562 9.12526L8.60224 17.1792C8.43511 17.349 8.43511 17.6196 8.60224 17.7894C8.68448 17.8716 8.79589 17.9167 8.90731 17.9167C9.01873 17.9167 9.12749 17.8742 9.21238 17.7894L17.2663 9.73541V9.73276ZM14.5021 9.51788C14.6692 9.35075 14.6692 9.07751 14.5021 8.90773C14.335 8.74061 14.0617 8.74061 13.8946 8.90773L10.1037 12.6986C9.9366 12.8657 9.9366 13.139 10.1037 13.3061C10.1886 13.391 10.2974 13.4334 10.4088 13.4334C10.5202 13.4334 10.629 13.391 10.7139 13.3061L14.5047 9.51523L14.5021 9.51788Z" fill="#E4E3FD"/>
<path d="M17.267 9.12531C17.4341 9.29244 17.4341 9.56568 17.267 9.73281L9.21303 17.7867C9.12814 17.869 9.01937 17.9141 8.90796 17.9141C8.79654 17.9141 8.68777 17.8716 8.60288 17.7867C8.43576 17.617 8.43576 17.3464 8.60288 17.1766L16.6568 9.12266C16.8266 8.95553 17.0972 8.95553 17.267 9.12266V9.12531Z" fill="#1D1D1B"/>
<path d="M14.5029 8.91029C14.6701 9.08007 14.6701 9.35066 14.5029 9.52044L10.7121 13.3113C10.6298 13.3962 10.5184 13.4386 10.407 13.4386C10.2956 13.4386 10.1868 13.3962 10.1019 13.3113C9.93478 13.1442 9.93478 12.8709 10.1019 12.7038L13.8928 8.91294C14.0599 8.74582 14.3331 8.74582 14.5003 8.91294L14.5029 8.91029Z" fill="#1D1D1B"/>
</svg>
